<?xml version="1.0" encoding="utf-8"?>
<!-- Generator: Adobe Illustrator 16.0.0, SVG Export Plug-In . SVG Version: 6.00 Build 0)  -->
<!DOCTYPE svg PUBLIC "-//W3C//DTD SVG 1.1//EN" "http://www.w3.org/Graphics/SVG/1.1/DTD/svg11.dtd">
<svg version="1.1" id="Слой_1" xmlns="http://www.w3.org/2000/svg" xmlns:xlink="http://www.w3.org/1999/xlink" x="0px" y="0px"
	 width="500px" height="500px" viewBox="0 0 500 500" enable-background="new 0 0 500 500" xml:space="preserve">
<path fill="#EBA628" d="M75.504,111.133c0,0,0.619-1.283,1.779-3.689c0.573-1.204,1.286-2.688,2.224-4.422
	c0.924-1.729,1.932-3.761,3.209-5.925c0.625-1.093,1.283-2.245,1.974-3.453c0.707-1.198,1.49-2.426,2.283-3.72
	c1.559-2.609,3.436-5.306,5.388-8.226c4.012-5.764,8.867-12.058,14.694-18.463c5.809-6.418,12.542-12.988,20.188-19.333
	c1.877-1.628,3.911-3.116,5.9-4.712c2.019-1.556,4.128-3.045,6.229-4.594c4.289-2.974,8.773-5.872,13.478-8.573
	c9.393-5.423,19.527-10.33,30.245-14.224C193.8,7.891,205,4.745,216.425,2.795l4.289-0.693c1.429-0.235,2.871-0.375,4.304-0.566
	c1.437-0.167,2.867-0.387,4.307-0.507l4.314-0.38c1.435-0.145,2.873-0.231,4.311-0.294c1.437-0.074,2.872-0.148,4.304-0.222
	c1.434-0.059,2.867-0.054,4.296-0.084l2.143-0.032l1.07-0.016L250.106,0l0.263,0.007l0.526,0.015
	c2.804,0.079,5.596,0.158,8.374,0.236c2.813,0.16,5.653,0.422,8.453,0.629l2.099,0.171l2.067,0.266
	c1.376,0.177,2.748,0.354,4.114,0.53c1.364,0.191,2.732,0.316,4.078,0.562c1.346,0.242,2.687,0.482,4.021,0.722
	c10.676,1.917,20.848,4.637,30.167,8.088c2.367,0.757,4.606,1.765,6.855,2.635c1.12,0.449,2.23,0.894,3.333,1.335
	c1.101,0.444,2.157,0.97,3.224,1.445c2.119,0.981,4.221,1.907,6.248,2.888c2.001,1.035,3.964,2.051,5.887,3.046
	c1.943,0.956,3.752,2.065,5.548,3.096c1.781,1.056,3.566,2.013,5.216,3.095c1.647,1.082,3.254,2.135,4.815,3.16
	c0.778,0.515,1.545,1.022,2.301,1.521c0.733,0.532,1.455,1.057,2.166,1.573c2.841,2.065,5.524,3.959,7.856,5.91
	c2.361,1.91,4.578,3.601,6.431,5.311c1.886,1.666,3.569,3.154,5.034,4.448c1.403,1.36,2.596,2.518,3.563,3.456
	c1.934,1.875,2.965,2.875,2.965,2.875c0.607,0.59,0.622,1.56,0.032,2.168c-0.445,0.459-1.107,0.58-1.667,0.357l-0.609-0.243
	c0,0-0.354-0.142-1.042-0.416c-0.682-0.279-1.719-0.661-2.998-1.219c-1.293-0.543-2.877-1.21-4.677-2.028
	c-0.93-0.368-1.928-0.764-2.994-1.187c-1.04-0.433-2.146-0.893-3.313-1.379c-2.308-0.985-4.922-1.953-7.694-3.031
	c-0.693-0.266-1.4-0.537-2.121-0.813c-0.707-0.29-1.433-0.574-2.192-0.832c-1.492-0.532-3.039-1.083-4.637-1.653
	c-3.146-1.171-6.564-2.221-10.062-3.389c-1.765-0.531-3.575-1.076-5.428-1.634c-1.843-0.549-3.686-1.161-5.646-1.604
	c-1.951-0.46-3.876-1.029-5.842-1.573c-1.988-0.495-4.034-0.922-6.081-1.396c-1.021-0.231-2.052-0.465-3.09-0.7
	c-1.041-0.211-2.09-0.425-3.147-0.64c-2.116-0.402-4.206-0.935-6.404-1.211c-8.608-1.646-17.715-2.57-26.982-3.216
	c-1.156-0.082-2.318-0.165-3.484-0.248c-1.163-0.087-2.348-0.053-3.519-0.116c-1.173-0.042-2.35-0.083-3.53-0.126l-1.768-0.067
	l-1.646,0.033c-2.21,0.008-4.434,0.016-6.668,0.023c-2.782,0.073-5.579,0.146-8.386,0.219l-0.526,0.013l-0.263,0.006
	c1.357,0.018,0.312,0.01,0.585,0.017l-0.112,0.009l-0.902,0.071l-1.804,0.117c-1.203,0.08-2.409,0.124-3.612,0.228
	c-1.201,0.117-2.404,0.234-3.608,0.351l-1.807,0.144l-1.802,0.208l-3.605,0.418c-1.203,0.134-2.394,0.36-3.596,0.503
	c-1.197,0.176-2.403,0.297-3.595,0.512l-3.577,0.622c-9.554,1.585-18.951,3.952-28.116,6.731
	c-9.171,2.778-18.055,6.159-26.578,9.889c-2.146,0.906-4.215,1.928-6.317,2.872c-1.058,0.462-2.061,1.006-3.084,1.513
	c-1.037,0.492-2.069,0.981-3.096,1.468c-2.003,1.056-4.032,2.059-5.987,3.139c-1.957,1.098-3.89,2.182-5.797,3.252
	c-3.851,2.139-7.493,4.431-11.042,6.691c-0.896,0.562-1.785,1.119-2.666,1.671c-0.878,0.561-1.715,1.154-2.567,1.724
	c-0.851,0.577-1.693,1.148-2.527,1.713c-0.822,0.582-1.631,1.167-2.46,1.725c-1.646,1.127-3.271,2.239-4.792,3.403
	c-1.548,1.158-3.061,2.288-4.535,3.391c-1.466,1.126-2.952,2.196-4.319,3.311c-1.365,1.117-2.697,2.211-4.053,3.239
	c-5.193,4.277-9.792,8.195-13.532,11.569c-3.737,3.37-6.713,5.982-8.806,8.005c-1.021,0.981-1.868,1.701-2.415,2.198
	c-0.553,0.494-0.839,0.749-0.839,0.749l-0.434,0.387c-0.638,0.569-1.616,0.514-2.185-0.124
	C75.315,112.355,75.242,111.68,75.504,111.133z M398.913,317.485c-0.342-0.773-1.244-1.123-2.017-0.782l-0.617,0.271
	c0,0-0.306,0.135-0.898,0.396c-0.587,0.267-1.489,0.636-2.595,1.179c-1.122,0.529-2.499,1.187-4.07,2.002
	c-0.789,0.404-1.638,0.838-2.543,1.3c-0.889,0.408-1.833,0.841-2.83,1.298c-2.004,0.881-4.097,1.923-6.358,2.998
	c-2.403,1.002-4.874,2.2-7.531,3.384c-0.657,0.304-1.339,0.595-2.001,0.918c-0.687,0.292-1.384,0.588-2.092,0.889
	c-1.401,0.593-2.843,1.202-4.321,1.827c-2.884,1.31-6.018,2.479-9.196,3.736c-0.8,0.308-1.599,0.625-2.382,0.974
	c-0.807,0.315-1.639,0.604-2.465,0.91c-1.646,0.601-3.322,1.212-5.027,1.834c-1.68,0.64-3.434,1.19-5.188,1.771
	c-1.763,0.565-3.506,1.196-5.274,1.811c-7.23,2.158-14.629,4.491-22.396,6.24c-0.961,0.236-1.926,0.474-2.895,0.711l-1.449,0.364
	l-1.474,0.3c-1.965,0.406-3.943,0.787-5.907,1.231l-1.474,0.338l-1.5,0.252c-1,0.165-2.002,0.331-3.007,0.498
	c-0.997,0.188-1.995,0.375-2.997,0.563l-1.499,0.286l-1.522,0.195c-2.032,0.25-4.051,0.586-6.079,0.885l-1.521,0.232l-1.537,0.146
	l-3.068,0.339l-3.07,0.35l-1.534,0.185l-1.545,0.109l-6.181,0.474l-1.543,0.146l-1.552,0.053l-3.102,0.113
	c-1.034,0.031-2.066,0.091-3.1,0.157l-1.549,0.096c1.334,0.017,0.305,0.005,0.573,0.009h-0.113h-0.227l-0.454,0.001l-0.908,0.001
	c-2.419-0.012-4.835,0.019-7.244,0.071c-0.331,0.012-0.525-0.004-0.769-0.01l-0.703-0.021l-1.406-0.037
	c-0.937-0.031-1.875-0.026-2.814-0.021c-1.808,0.071-3.937-0.133-5.951-0.194c-2.037-0.063-4.074-0.098-6.078-0.309
	c-2.012-0.15-4.035-0.224-6.031-0.398c-1.984-0.229-3.979-0.38-5.958-0.566c-0.996-0.069-1.973-0.204-2.952-0.327
	c-0.981-0.119-1.959-0.238-2.932-0.356c-0.979-0.114-1.953-0.228-2.922-0.341c-0.972-0.112-1.924-0.285-2.884-0.423
	c-0.96-0.145-1.915-0.289-2.865-0.433c-0.954-0.137-1.92-0.231-2.858-0.4c-1.871-0.35-3.734-0.687-5.599-0.979
	c-1.876-0.266-3.665-0.716-5.484-1.047c-0.908-0.179-1.809-0.355-2.703-0.531c-0.896-0.179-1.804-0.318-2.675-0.533
	c-1.771-0.392-3.514-0.776-5.223-1.154c-1.743-0.34-3.362-0.877-5.048-1.235c-1.663-0.404-3.321-0.771-4.92-1.192
	c-1.58-0.455-3.124-0.92-4.687-1.299c-3.152-0.72-5.967-1.765-8.812-2.506c-2.865-0.72-5.364-1.723-7.882-2.411
	c-2.506-0.71-4.721-1.531-6.817-2.188c-1.046-0.341-2.036-0.663-2.967-0.967c-0.947-0.293-1.854-0.554-2.657-0.851
	c-1.619-0.577-3.046-1.036-4.211-1.41c-1.151-0.389-2.089-0.638-2.703-0.828c-0.621-0.185-0.94-0.28-0.94-0.28l-0.713-0.213
	c-0.538-0.16-1.144-0.013-1.548,0.43c-0.564,0.617-0.521,1.574,0.095,2.139c0,0,0.904,0.826,2.598,2.376
	c0.848,0.775,1.894,1.731,3.123,2.855c1.219,1.138,2.731,2.313,4.366,3.704c0.824,0.688,1.692,1.412,2.603,2.172
	c0.904,0.77,1.92,1.483,2.941,2.278c2.077,1.543,4.245,3.328,6.741,4.98c2.472,1.688,5.048,3.573,7.932,5.303
	c1.43,0.884,2.897,1.79,4.398,2.719c1.525,0.888,3.12,1.737,4.73,2.638c3.196,1.852,6.678,3.487,10.243,5.261
	c1.773,0.907,3.663,1.642,5.536,2.491c1.888,0.813,3.78,1.704,5.772,2.423c1.978,0.759,3.982,1.527,6.011,2.306
	c2.048,0.727,4.147,1.388,6.256,2.096c1.059,0.342,2.113,0.719,3.192,1.036c1.084,0.296,2.174,0.594,3.27,0.894
	c1.096,0.298,2.197,0.597,3.303,0.897c1.104,0.311,2.217,0.602,3.351,0.833c2.258,0.501,4.534,1.005,6.827,1.514
	c2.304,0.455,4.643,0.817,6.986,1.233c2.339,0.45,4.72,0.719,7.109,1.012c2.393,0.281,4.776,0.645,7.23,0.779
	c2.439,0.178,4.888,0.357,7.345,0.537c2.406,0.066,4.819,0.133,7.238,0.199l1.89,0.051l1.845-0.045l3.695-0.09l3.699-0.092
	l1.851-0.046l1.846-0.143l7.374-0.651l1.842-0.164l1.829-0.26l3.653-0.533l3.646-0.532l1.819-0.267l1.8-0.365
	c2.396-0.488,4.787-0.976,7.167-1.461l1.782-0.368l1.757-0.461c1.17-0.308,2.337-0.613,3.501-0.92
	c1.164-0.306,2.325-0.611,3.483-0.915l1.732-0.463l1.702-0.55c2.265-0.731,4.516-1.459,6.751-2.182l1.673-0.543l1.635-0.63
	c1.088-0.419,2.171-0.836,3.25-1.251c1.079-0.416,2.153-0.83,3.223-1.242c1.074-0.402,2.136-0.82,3.162-1.307
	c2.074-0.926,4.123-1.856,6.142-2.79c2.044-0.882,3.97-1.952,5.896-2.958c1.921-1.015,3.819-2.018,5.691-3.006
	c1.817-1.086,3.609-2.157,5.376-3.213c1.757-1.066,3.528-2.052,5.154-3.204c1.65-1.112,3.273-2.205,4.867-3.277
	c0.793-0.541,1.591-1.06,2.359-1.603c0.752-0.567,1.496-1.129,2.232-1.685c5.971-4.342,11.104-8.763,15.504-12.816
	c2.162-2.069,4.186-4.005,6.057-5.796c1.783-1.893,3.421-3.631,4.899-5.201c0.738-0.784,1.437-1.526,2.095-2.226
	c0.611-0.722,1.185-1.399,1.719-2.029c1.065-1.261,1.973-2.333,2.708-3.202c1.47-1.738,2.255-2.666,2.255-2.666
	C399.046,318.657,399.156,318.037,398.913,317.485z M271.368,148.951c-2.463,3.228-5.186,7.379-8.099,12.348
	c-2.073,3.459-4.383,7.816-6.862,12.95c-2.415,4.994-4.954,10.288-7.762,16.182c-2.6,5.462-5.114,10.931-7.471,16.254
	c-2.149,4.856-3.986,9.055-5.462,12.485c0.79,2.528,1.488,5.787,2.129,9.943c0.722,4.715,1.088,8.856,1.088,12.31
	c0,6.156-0.646,12.098-1.919,17.658c-1.293,5.63-3.18,10.569-5.596,14.66c-1.134,2.036-2.665,3.606-4.55,4.668
	c-1.857,1.042-3.681,1.57-5.421,1.57c-3.411,0-6.1-1.637-7.774-4.732c-1.376-2.534-2.074-5.142-2.074-7.75
	c0-3.807,0.808-8.71,2.47-14.99c1.607-6.068,3.408-11.829,5.348-17.111c1.075-3.045,2.236-6.168,3.449-9.282
	c1.074-2.77,2.177-5.334,3.282-7.628c-1.481-5.139-3.251-10.394-5.261-15.625c-2.132-5.534-4.758-10.916-7.806-15.995
	c-3.046-5.076-6.57-9.889-10.474-14.305c-3.061-3.457-6.486-6.53-10.196-9.149c-2.944,6.36-5.942,12.942-8.918,19.583
	c-3.384,7.548-6.275,13.82-8.574,18.598c-1.926,4.554-4.341,9.606-7.177,15.018c-2.79,5.315-5.904,11.055-9.254,17.054
	c-3.705,6.707-7.746,13.217-12.011,19.35c-4.296,6.175-8.664,11.496-13,15.831c-4.285,4.098-9.101,7.358-14.314,9.689
	c-5.286,2.357-11.015,3.553-17.026,3.553c-3.808,0-7.665-0.625-11.463-1.858c-3.799-1.236-7.186-2.934-10.04-5.025
	c-5.984-4.111-10.555-9.314-13.585-15.466c-3-6.1-4.522-12.704-4.522-19.631c0-0.947,0.048-1.967,0.144-3.037
	c0.098-1.04,0.24-2.131,0.43-3.284l0.043-0.206c0.302-1.196,1.104-4.374,3.962-4.374c2.018,0,4.054,1.416,4.054,4.58v1.152v0.182
	l-0.063,0.169l-0.127,0.339c-0.398,1.063-0.6,2.569-0.6,4.479c0,2.64,0.303,4.892,0.891,6.665c1.222,3.353,3.514,6.564,6.813,9.547
	c3.349,3.031,7.323,5.3,11.823,6.747c3.896,1.301,8.191,1.96,12.767,1.96c3.965,0,7.895-0.46,11.681-1.367
	c3.737-0.892,7.37-2.337,10.789-4.289c4.723-2.77,9.258-6.943,13.479-12.405c4.352-5.632,8.378-11.953,11.974-18.804
	c1.917-3.486,4.194-7.783,6.962-13.136c2.75-5.326,5.713-11.163,8.809-17.356c3.471-6.771,6.862-13.861,10.079-21.074
	c2.815-6.315,5.38-12.383,7.628-18.049c-1.761-1.084-3.571-1.921-5.39-2.492c-2.715-0.847-5.773-1.72-9.075-2.593
	c-3.94-0.985-7.852-1.484-11.625-1.484c-2.945,0-5.943,0.292-8.909,0.867c-3.012,0.589-5.701,1.302-7.947,2.102
	c-2.621,1.082-5.066,2.586-7.267,4.474c-2.143,1.834-3.757,3.823-4.799,5.911c-0.466,0.932-0.949,2.103-1.436,3.478
	c-0.528,1.499-0.986,2.732-1.36,3.67c-0.854,2.125-2.145,3.203-3.839,3.203c-2.018,0-4.053-1.416-4.053-4.58v-2.264v-1h1h0.066
	c0.924-2.366,2.2-4.995,3.799-7.825c2.013-3.572,4.071-6.608,6.12-9.026c4.384-5.148,10.026-8.867,16.77-11.053
	c6.509-2.107,13.067-3.175,19.493-3.175c3.123,0,6.51,0.277,10.07,0.825c3.588,0.552,7.005,1.396,10.138,2.501
	c1.795,0.598,3.353,1.331,4.632,2.181c0.262,0.175,0.534,0.354,0.814,0.539c0.341-0.704,0.675-1.4,1.001-2.09
	c0.731-1.542,1.444-3.173,2.118-4.848c0.643-2.027,2.259-3.284,4.229-3.284c0.704,0,1.429,0.158,2.155,0.469l0.031,0.013l0.03,0.015
	l0.243,0.124l0.031,0.016l0.03,0.018c2.554,1.535,2.808,3.998,1.927,5.758c-0.835,1.667-1.598,3.361-2.267,5.038
	c-0.453,1.131-0.951,2.322-1.486,3.549c3.468,3,6.947,6.907,10.352,11.625c3.942,5.471,7.568,11.453,10.778,17.781
	c3.192,6.296,6.026,12.685,8.425,18.99c1.101,2.896,2.075,5.672,2.907,8.289c0.715-1.698,1.408-3.323,2.07-4.856
	c1.667-3.864,3.427-7.91,5.273-12.128c1.848-4.223,3.991-8.865,6.369-13.796c2.571-5.333,5.453-11.275,8.562-17.654
	c2.162-4.5,4.659-8.949,7.424-13.224c2.816-4.365,6.096-8.43,9.748-12.082c4.792-4.792,10.354-8.671,16.533-11.532
	c6.254-2.893,13.014-4.36,20.092-4.36c1.624,0,3.477,0.239,5.666,0.732c2.205,0.503,4.076,1.186,5.554,2.026
	c1.683,0.938,3.501,2.104,5.404,3.463c1.877,1.34,3.593,2.686,5.127,4.023l0.126,0.118c1.121,1.123,1.666,2.247,1.666,3.437
	c0,1.883-1.392,3.79-4.053,3.79c-1.379,0-2.281-0.549-2.817-1.05c-0.033-0.02-0.08-0.045-0.147-0.08l-0.157-0.087
	c-1.594-0.955-3.252-1.764-4.927-2.404c-1.569-0.595-3.37-0.975-5.333-1.127c-0.577-0.033-1.167-0.05-1.754-0.05
	c-2.075,0-4.122,0.218-6.084,0.646c-2.754,0.604-5.609,1.34-8.482,2.185c-3.29,0.986-6.688,2.414-10.1,4.244
	c-3.353,1.802-6.462,4.041-9.247,6.66C276.119,143.146,273.796,145.769,271.368,148.951z M325.113,130.368c0,0,0,0-0.001-0.002
	c0.057,0.057,0.135,0.116,0.205,0.175c-0.071-0.06-0.149-0.119-0.207-0.177C325.113,130.367,325.113,130.368,325.113,130.368z
	 M327.323,131.221c-0.282,0-0.536-0.029-0.767-0.079C326.787,131.192,327.041,131.221,327.323,131.221z M325.767,130.84
	c-0.105-0.058-0.217-0.113-0.305-0.176C325.55,130.727,325.661,130.783,325.767,130.84z M326.329,131.068
	c-0.134-0.04-0.274-0.076-0.389-0.127C326.055,130.992,326.195,131.028,326.329,131.068z M227.703,257.119
	c1.021-6.038,1.538-11.585,1.538-16.487c0-1.238-0.024-2.584-0.072-4.025c-0.496,1.537-0.98,3.018-1.45,4.427
	c-1.556,5.018-3.002,10.058-4.297,14.98c-1.245,4.732-1.876,8.685-1.876,11.747c0,1.013,0.112,2,0.333,2.941
	c0.121-0.074,0.263-0.195,0.429-0.395C224.93,267.222,226.745,262.784,227.703,257.119z M199.196,133.645
	c0.099,0.015,0.194,0.016,0.294,0.038C199.39,133.66,199.294,133.659,199.196,133.645z M198.607,133.579
	c-0.216,0-0.425,0.024-0.628,0.061c0.217-0.04,0.442-0.059,0.674-0.056C198.639,133.584,198.622,133.579,198.607,133.579z
	 M196.121,134.72c0.147-0.172,0.306-0.33,0.479-0.464C196.426,134.39,196.268,134.548,196.121,134.72z M197.335,133.836
	c0.159-0.066,0.323-0.118,0.494-0.158C197.658,133.718,197.494,133.77,197.335,133.836z M196.672,134.207
	c0.154-0.114,0.317-0.211,0.488-0.294C196.989,133.996,196.826,134.093,196.672,134.207z M195.321,136.2
	c0.078-0.252,0.178-0.483,0.289-0.703C195.5,135.717,195.399,135.947,195.321,136.2z M195.711,135.314
	c0.091-0.159,0.189-0.309,0.297-0.447C195.9,135.006,195.802,135.154,195.711,135.314z M447.069,110.549
	c-0.508-0.501-1.083-0.963-1.769-1.422c-1.043-0.694-2.017-1.031-2.98-1.031c-2.754,0-3.862,1.603-4.235,2.37
	c-1.751,2.706-3.889,6.037-6.723,10.473c-0.806,1.264-1.579,2.474-2.319,3.63c-0.831-3.606-2.748-6.442-5.72-8.453
	c-3.743-2.526-9.049-3.807-15.77-3.807c-8.936,0-18.166,1.842-27.435,5.475c-9.161,3.596-17.458,8.067-24.66,13.291
	c-4.226,3.175-7.711,6.73-10.374,10.577c-2.834,4.092-4.271,8.433-4.271,12.902c0,4.44,1.137,8.445,3.379,11.901
	c2.115,3.276,5.366,6.546,9.662,9.717c5.373,4.123,11.69,8.033,18.761,11.61c6.788,3.44,13.097,7.181,18.749,11.119
	c2.976,2.039,5.344,4.48,7.043,7.26c1.631,2.668,2.458,5.755,2.459,9.175c-0.16,5.396-1.526,10.317-4.06,14.597
	c-2.613,4.41-6.102,8.393-10.366,11.837c-4.354,3.517-9.339,6.625-14.813,9.24c-5.548,2.643-11.251,4.847-16.95,6.549
	c-5.723,1.706-11.38,2.959-16.813,3.724c-5.46,0.768-10.193,1.156-14.067,1.156c-4.367,0-9.069-0.429-13.976-1.273
	c-4.755-0.822-9.195-2.314-13.196-4.435c-3.906-2.073-7.22-4.818-9.846-8.158c-2.458-3.129-3.704-7.291-3.704-12.369
	c0-3.1,0.329-6.11,0.979-8.946c0.627-2.753,1.753-5.522,3.348-8.233l0.086-0.157c0.399-0.809,0.592-1.698,0.592-2.681
	c0-2.661-1.906-4.054-3.79-4.054c-1.812,0-3.295,0.894-3.987,2.394c-4.763,7.418-7.178,15.509-7.178,24.048
	c0,7.171,1.465,13.347,4.353,18.355c2.838,4.919,6.585,9.048,11.136,12.273c4.491,3.182,9.745,5.552,15.613,7.045
	c5.753,1.46,11.707,2.2,17.696,2.2c0.624,0.01,1.263,0.015,1.9,0.015c10.632,0,21.086-1.416,31.072-4.209
	c10.64-2.976,20.162-7.374,28.303-13.073c8.218-5.752,14.89-12.936,19.831-21.351c4.993-8.505,7.524-18.144,7.524-28.647
	c0-4.478-0.949-8.688-2.82-12.515c-1.787-3.644-4.035-7.019-6.684-10.033c-3.31-3.657-7.437-7.257-12.273-10.711
	c-4.735-3.376-9.583-6.531-14.407-9.376c-2.354-1.339-4.646-2.858-6.823-4.524c-2.18-1.666-3.951-3.174-5.265-4.483
	c-1.161-1.155-2.075-2.424-2.716-3.772c-0.604-1.269-0.898-2.613-0.898-4.11c0-2.757,1.006-5.778,2.989-8.98
	c2.43-4.048,5.85-7.749,10.173-11.014c4.366-3.295,9.084-5.802,14.021-7.449c2.436-0.811,5.302-1.432,8.52-1.846
	c3.301-0.42,6.142-0.634,8.442-0.634c1.635,0,3.548,0.085,5.688,0.254c1.878,0.151,3.572,0.522,5.032,1.104
	c2.59,1.068,4.653,2.355,6.122,3.82c1.138,1.141,1.614,2.498,1.498,4.268l-0.002,0.029v0.03l-0.004,0.571
	c-0.161,2.625-0.537,4.733-1.119,6.269c-0.606,1.588-1.551,3.269-2.806,4.996c-1.246,1.779-2.677,3.88-4.263,6.26
	c-1.627,2.44-2.925,4.706-3.857,6.734c-0.746,1.307-1.124,2.747-1.124,4.28c0,1.183,0.285,2.347,0.849,3.46l0.021,0.04l0.023,0.038
	l0.186,0.298l0.022,0.037l0.026,0.035c1.96,2.614,4.668,4.474,8.048,5.527c0.82,0.276,1.736,0.414,2.78,0.414
	c2.29,0,3.526-1.682,3.526-3.264v-0.74v-0.238l-0.107-0.212l-0.215-0.425c-0.188-0.371-0.307-0.782-0.354-1.223
	c-0.075-0.653-0.113-1.202-0.113-1.639c0-1.71,0.198-3.49,0.591-5.29c0.397-1.837,1.007-3.744,1.812-5.668l0.052-0.136
	c1.006-2.845,2.224-5.577,3.63-8.14c1.421-2.597,2.931-5.141,4.485-7.563c1.687-2.535,3.809-5.505,6.477-9.066
	c2.586-3.445,5.104-6.66,7.487-9.556c0.849-0.918,1.278-2.119,1.278-3.57C448.48,112.131,447.676,111.162,447.069,110.549z"/>
<path fill="#FFFFFF" d="M70.98,495.091v-64.424h23.36c4.889,0,9.243,0.791,13.063,2.373c3.82,1.582,7.039,3.779,9.66,6.592
	c2.62,2.813,4.618,6.167,5.994,10.063s2.064,8.174,2.064,12.832c0,4.629-0.666,8.921-1.998,12.876s-3.264,7.397-5.796,10.327
	c-2.533,2.93-5.643,5.223-9.331,6.878s-7.889,2.482-12.602,2.482H70.98z M79.11,487.488h15.293c3.252,0,6.247-0.513,8.987-1.538
	c2.739-1.025,5.09-2.578,7.053-4.658c1.962-2.08,3.494-4.694,4.592-7.844s1.648-6.834,1.648-11.053c0-3.486-0.499-6.709-1.494-9.668
	c-0.996-2.959-2.454-5.508-4.373-7.646c-1.919-2.139-4.27-3.809-7.053-5.01c-2.784-1.201-5.962-1.802-9.536-1.802H79.11V487.488z
	 M175.966,495.091c-0.615-3.105-1.318-6.313-2.109-9.624s-1.802-6.606-3.032-9.888h-29.399c-1.114,3.281-2.131,6.533-3.054,9.756
	s-1.692,6.475-2.307,9.756h-8.262c0.674-3.311,1.421-6.577,2.241-9.8c0.82-3.223,1.714-6.445,2.681-9.668
	c0.352-1.201,0.718-2.38,1.099-3.538c0.38-1.156,0.776-2.336,1.187-3.537c2.168-6.357,4.592-12.656,7.273-18.896
	s5.647-12.568,8.899-18.984h9.624c3.311,6.445,6.291,12.817,8.943,19.116c2.651,6.299,5.046,12.627,7.185,18.984
	c0.41,1.172,0.806,2.344,1.187,3.516c0.38,1.172,0.747,2.344,1.099,3.516c0.996,3.252,1.918,6.475,2.769,9.668
	c0.85,3.193,1.655,6.401,2.417,9.624H175.966z M168.803,468.636c-1.055-2.842-2.029-5.479-2.922-7.91
	c-0.894-2.432-1.824-4.813-2.791-7.141c-0.967-2.33-2.015-4.703-3.142-7.119c-1.128-2.418-2.439-5.032-3.933-7.845
	c-1.494,2.813-2.813,5.493-3.955,8.042s-2.212,5.031-3.208,7.449c-0.996,2.416-1.927,4.819-2.791,7.207
	c-0.864,2.388-1.736,4.826-2.615,7.316H168.803z M190.995,495.091v-64.424h8.394c6.328,8.291,12.231,16.561,17.71,24.807
	c5.478,8.248,10.386,16.692,14.722,25.335h0.044v-50.142h7.866v64.424h-8.394c-4.454-9.141-9.441-18.193-14.963-27.158
	c-5.522-8.965-11.375-17.52-17.556-25.664v52.822H190.995z M297.65,473.821h8.921c-0.615,2.637-1.634,5.281-3.054,7.932
	c-1.422,2.652-3.274,5.047-5.56,7.186s-5.024,3.882-8.218,5.229s-6.871,2.021-11.03,2.021c-4.103,0-7.954-0.791-11.558-2.373
	s-6.753-3.838-9.448-6.768c-2.696-2.93-4.827-6.475-6.394-10.635c-1.568-4.16-2.352-8.833-2.352-14.019
	c0-4.453,0.644-8.672,1.934-12.656c1.289-3.984,3.179-7.471,5.669-10.459c2.489-2.988,5.544-5.354,9.163-7.098
	c3.617-1.742,7.756-2.614,12.414-2.614c3.545,0,6.752,0.425,9.624,1.274c2.871,0.85,5.412,2.08,7.624,3.691
	c2.213,1.611,4.094,3.582,5.647,5.91c1.553,2.33,2.798,4.988,3.735,7.977h-8.525c-0.762-1.875-1.743-3.53-2.944-4.966
	c-1.202-1.436-2.586-2.637-4.153-3.604c-1.566-0.967-3.295-1.699-5.186-2.197c-1.889-0.498-3.889-0.747-5.998-0.747
	c-3.604,0-6.701,0.711-9.295,2.131c-2.592,1.422-4.724,3.318-6.394,5.691s-2.9,5.091-3.691,8.152s-1.187,6.218-1.187,9.47
	c0,4.277,0.549,8.063,1.648,11.36c1.098,3.295,2.607,6.064,4.525,8.305c1.919,2.242,4.176,3.948,6.768,5.12
	c2.594,1.172,5.369,1.758,8.328,1.758c2.754,0,5.192-0.358,7.316-1.077c2.125-0.717,3.971-1.735,5.537-3.054
	c1.567-1.318,2.857-2.907,3.867-4.769C296.398,478.136,297.152,476.077,297.65,473.821z M315.8,495.091v-64.424h8.218v64.424H315.8z
	 M337.201,495.091v-64.424h8.394c6.328,8.291,12.231,16.561,17.71,24.807c5.479,8.248,10.386,16.692,14.722,25.335h0.044v-50.142
	h7.866v64.424h-8.394c-4.453-9.141-9.441-18.193-14.963-27.158c-5.523-8.965-11.375-17.52-17.557-25.664v52.822H337.201z
	 M423.07,469.822v-7.603h29.268v25.84c-4.102,2.783-8.394,4.834-12.876,6.152s-9.009,1.978-13.579,1.978
	c-4.424,0-8.511-0.791-12.261-2.373c-3.751-1.582-6.995-3.823-9.733-6.724c-2.74-2.9-4.879-6.379-6.416-10.438
	c-1.539-4.057-2.308-8.547-2.308-13.469c0-5.186,0.71-9.851,2.132-13.996c1.42-4.146,3.441-7.669,6.064-10.569
	c2.621-2.9,5.778-5.134,9.47-6.702c3.691-1.566,7.822-2.351,12.393-2.351c3.369,0,6.423,0.462,9.162,1.384
	c2.739,0.924,5.193,2.22,7.361,3.89s4.058,3.662,5.669,5.977s2.974,4.849,4.087,7.603h-8.701c-0.586-1.488-1.465-2.918-2.637-4.289
	c-1.172-1.372-2.542-2.584-4.109-3.634c-1.567-1.051-3.281-1.89-5.141-2.518c-1.861-0.628-3.743-0.941-5.647-0.941
	c-3.486,0-6.57,0.593-9.25,1.778c-2.682,1.186-4.938,2.913-6.768,5.182c-1.832,2.269-3.216,5.049-4.153,8.342
	c-0.938,3.293-1.406,7.033-1.406,11.219c0,3.835,0.498,7.318,1.494,10.45c0.995,3.133,2.446,5.804,4.351,8.014
	s4.226,3.931,6.965,5.159c2.74,1.229,5.852,1.844,9.339,1.844c1.582-0.088,3.12-0.197,4.614-0.33
	c1.494-0.131,2.995-0.358,4.505-0.681c1.508-0.322,3.031-0.769,4.57-1.341c1.537-0.57,3.142-1.325,4.812-2.263v-14.59H423.07z"/>
</svg>
