<svg version="1.1" xmlns="http://www.w3.org/2000/svg" xmlns:xlink="http://www.w3.org/1999/xlink" x="0px" y="0px"
	 width="19px" height="21px" viewBox="0 0 19 21" enable-background="new 0 0 19 21" xml:space="preserve">
<path fill="#EBA628" d="M3.726,1c0.037,0,0.106,0.01,0.159,0.076l2.933,3.722C6.861,4.852,6.864,4.909,6.86,4.947
	C6.855,4.984,6.839,5.037,6.785,5.08L5.652,5.974c-0.863,0.685-1.844,3.342,0.866,6.781c1.958,2.483,3.872,2.854,4.839,2.854
	c0.647,0,1.211-0.162,1.588-0.459l1.132-0.894c0.035-0.027,0.075-0.041,0.12-0.041c0.036,0,0.105,0.01,0.159,0.077l2.933,3.722
	c0.069,0.089,0.056,0.212-0.033,0.282l-1.105,0.873h-0.001l-0.028,0.022c-0.674,0.526-1.501,0.793-2.457,0.793
	c-0.947,0-1.991-0.259-3.102-0.77c-2.078-0.952-4.194-2.709-5.96-4.947c-1.765-2.243-2.98-4.713-3.419-6.954
	c-0.466-2.369-0.026-4.26,1.271-5.361v0c0.069-0.056,1.148-0.909,1.148-0.909C3.638,1.015,3.68,1,3.726,1 M3.726,0
	C3.465,0,3.204,0.084,2.983,0.257c0,0-1.15,0.91-1.16,0.919C0.231,2.49-0.345,4.731,0.201,7.506
	c0.471,2.398,1.757,5.018,3.615,7.379c1.861,2.359,4.108,4.221,6.329,5.238c1.249,0.574,2.438,0.86,3.519,0.86
	c1.171,0,2.215-0.336,3.072-1.005c0.003-0.002,0.006-0.004,0.008-0.006l1.131-0.893c0.522-0.411,0.61-1.164,0.2-1.686l-2.934-3.723
	c-0.237-0.301-0.59-0.458-0.944-0.458c-0.26,0-0.521,0.084-0.74,0.257l-1.131,0.893c-0.167,0.131-0.508,0.244-0.969,0.244
	c-0.982,0-2.511-0.516-4.054-2.473C5.038,9.26,5.754,7.168,6.273,6.757l1.131-0.892c0.521-0.409,0.61-1.164,0.2-1.686L4.67,0.457
	C4.433,0.157,4.081,0,3.726,0L3.726,0z"/>
</svg>
