<svg version="1.1"  xmlns="http://www.w3.org/2000/svg" xmlns:xlink="http://www.w3.org/1999/xlink" x="0px" y="0px"
	 width="18px" height="13px" viewBox="0 0 18 13" enable-background="new 0 0 18 13" xml:space="preserve">
<path fill="#504C4C" d="M16.875,0H1.125C0.504,0,0,0.504,0,1.125v10.766C0,12.511,0.504,13,1.125,13h15.75
	C17.496,13,18,12.511,18,11.891V1.125C18,0.504,17.496,0,16.875,0z M6.391,7.906l2.611,1.774L11.6,7.893L16.08,12H1.92L6.391,7.906
	L6.391,7.906z M1,11.579V4.326l4.442,2.935L1,11.579z M12.54,7.244L17,4.262v7.317L12.54,7.244z M17,1v1.945L8.998,8.319L1,2.967V1
	H17z"/>
</svg>
