<svg version="1.1" xmlns="http://www.w3.org/2000/svg" xmlns:xlink="http://www.w3.org/1999/xlink" x="0px" y="0px"
	 width="31px" height="24px" viewBox="0 0 31 24" enable-background="new 0 0 31 24" xml:space="preserve">
<path fill="#EBA628" d="M24,11H13v3.392h6.621c-1.019,3.244-4.049,5.597-7.629,5.597c-4.415,0-7.995-3.58-7.995-7.996
	c0-4.415,3.58-7.994,7.995-7.994c2.224,0,4.235,0.908,5.685,2.373l2.708-2.943C18.222,1.308,15.26,0,11.992,0
	C5.369,0,0,5.37,0,11.992c0,6.624,5.369,11.994,11.992,11.994c5.803,0,10.882-4.121,11.993-9.595L24,11z M31,13h-2v2h-2v-2h-2v-2h2
	V9h2v2h2V13z"/>
</svg>
