<svg version="1.1" xmlns="http://www.w3.org/2000/svg" xmlns:xlink="http://www.w3.org/1999/xlink" x="0px" y="0px"
	 width="24px" height="24px" viewBox="0 0 24 24" enable-background="new 0 0 24 24" xml:space="preserve">
<path fill="#EBA628" d="M17.376,0H6.623C2.971,0,0,2.971,0,6.623v10.754C0,21.029,2.971,24,6.623,24h10.754
	C21.029,24,24,21.029,24,17.376V6.623C24,2.971,21.029,0,17.376,0z M22,17.447C22,19.958,19.958,22,17.447,22H6.553
	C4.042,22,2,19.958,2,17.447V6.552C2,4.042,4.042,2,6.553,2h10.895C19.958,2,22,4.042,22,6.552V17.447L22,17.447z M12,6
	c-3.309,0-6,2.691-6,6s2.691,6,6,6c3.308,0,6-2.691,6-6S15.308,6,12,6z M12,16c-2.205,0-4-1.794-4-4c0-2.206,1.794-4,4-4
	c2.205,0,4,1.794,4,4C16,14.206,14.205,16,12,16z M18.443,4.01c-0.41,0-0.813,0.167-1.103,0.458
	c-0.291,0.288-0.458,0.692-0.458,1.104c0,0.41,0.167,0.813,0.458,1.104c0.29,0.29,0.692,0.457,1.103,0.457
	c0.412,0,0.813-0.167,1.104-0.457c0.291-0.291,0.457-0.694,0.457-1.104c0-0.411-0.166-0.815-0.457-1.104
	C19.258,4.177,18.855,4.01,18.443,4.01z"/>
</svg>
