<svg version="1.1"  xmlns="http://www.w3.org/2000/svg" xmlns:xlink="http://www.w3.org/1999/xlink" x="0px" y="0px"
	 width="15px" height="21px" viewBox="0 0 15 21" enable-background="new 0 0 15 21" xml:space="preserve">
<path fill="#504C4C" d="M7.5,1C11.083,1,14,3.913,14,7.494c0,2.561-3.708,7.916-6.499,11.288C4.989,15.737,1,10.212,1,7.494
	C1,3.913,3.916,1,7.5,1 M7.5,0C3.365,0,0,3.362,0,7.494c0,4.038,6.972,12.221,7.268,12.567l0.231,0.27l0.231-0.27
	C8.028,19.714,15,11.532,15,7.494C15,3.362,11.635,0,7.5,0L7.5,0z M7.499,6C8.326,6,9,6.674,9,7.503S8.326,9.006,7.499,9.006
	S5.998,8.332,5.998,7.503S6.671,6,7.499,6 M7.499,5C6.12,5,4.997,6.123,4.997,7.503c0,1.381,1.123,2.503,2.502,2.503
	S10,8.884,10,7.503C10,6.123,8.877,5,7.499,5L7.499,5z"/>
</svg>
