<svg version="1.1" xmlns="http://www.w3.org/2000/svg" xmlns:xlink="http://www.w3.org/1999/xlink" x="0px" y="0px"
	 width="24px" height="24px" viewBox="0 0 24 24" enable-background="new 0 0 24 24" xml:space="preserve">
<path fill="#EBA628" d="M18.023,1.609C16.185,0.537,14.177,0,12,0C9.823,0,7.815,0.537,5.977,1.609
	C4.139,2.682,2.682,4.139,1.61,5.977C0.536,7.815,0,9.823,0,12c0,2.427,0.661,4.631,1.985,6.61c1.322,1.979,3.057,3.443,5.203,4.391
	c-0.042-1.115,0.025-2.037,0.202-2.766l1.547-6.531c-0.26-0.51-0.391-1.146-0.391-1.907c0-0.885,0.225-1.625,0.672-2.219
	c0.447-0.594,0.994-0.89,1.641-0.89c0.521,0,0.922,0.171,1.203,0.516c0.281,0.344,0.422,0.775,0.422,1.296
	c0,0.324-0.061,0.717-0.18,1.18c-0.12,0.464-0.276,1-0.469,1.61c-0.192,0.608-0.331,1.096-0.414,1.461
	c-0.146,0.635-0.026,1.179,0.359,1.632c0.385,0.454,0.896,0.68,1.532,0.68c1.114,0,2.027-0.62,2.742-1.859
	c0.714-1.24,1.07-2.746,1.07-4.517c0-1.364-0.44-2.474-1.32-3.328c-0.88-0.854-2.107-1.281-3.68-1.281
	c-1.761,0-3.185,0.565-4.273,1.695c-1.089,1.13-1.633,2.482-1.633,4.055c0,0.938,0.266,1.724,0.797,2.36
	c0.177,0.208,0.234,0.432,0.172,0.67c-0.021,0.063-0.063,0.22-0.125,0.47C7,15.577,6.958,15.741,6.938,15.812
	c-0.083,0.334-0.281,0.438-0.594,0.313c-0.802-0.334-1.412-0.912-1.828-1.735c-0.417-0.822-0.625-1.776-0.625-2.86
	c0-0.697,0.111-1.395,0.336-2.093C4.451,8.74,4.8,8.065,5.273,7.414c0.474-0.649,1.042-1.226,1.704-1.726
	c0.661-0.501,1.466-0.901,2.415-1.203c0.947-0.302,1.968-0.453,3.062-0.453c1.479,0,2.807,0.328,3.984,0.983
	c1.177,0.657,2.076,1.506,2.696,2.548c0.619,1.042,0.93,2.156,0.93,3.344c0,1.563-0.271,2.969-0.813,4.218
	c-0.542,1.25-1.308,2.233-2.297,2.946c-0.989,0.713-2.115,1.07-3.375,1.07c-0.636,0-1.23-0.149-1.782-0.445
	c-0.553-0.298-0.933-0.648-1.141-1.055c-0.469,1.843-0.75,2.943-0.844,3.297c-0.198,0.74-0.604,1.594-1.219,2.563
	C9.709,23.834,10.844,24,12,24c2.176,0,4.185-0.535,6.023-1.61c1.838-1.072,3.294-2.528,4.368-4.367C23.464,16.185,24,14.178,24,12
	c0-2.177-0.536-4.185-1.609-6.024C21.318,4.139,19.861,2.682,18.023,1.609z"/>
</svg>
