<svg xmlns="http://www.w3.org/2000/svg" xmlns:xlink="http://www.w3.org/1999/xlink" width="16" height="10" viewBox="0 0 16 10"><defs><path id="b6tqa" d="M589.932 2340.64c-1.831 0-3.276-1.507-3.276-3.364s1.503-3.364 3.334-3.364l.064.003a4.163 4.163 0 0 0-2.628-.937.832.832 0 0 1-.826-.841c0-.464.294-.84.752-.84 3.25 0 5.817 2.682 5.817 5.979v.002c0 1.857-1.407 3.362-3.237 3.362zm-7.765 0c-1.83 0-3.279-1.507-3.279-3.364s1.502-3.364 3.334-3.364l.063.003a4.164 4.164 0 0 0-2.628-.937.833.833 0 0 1-.827-.841c0-.464.3-.84.757-.84 3.25 0 5.822 2.682 5.822 5.979v.002c0 1.857-1.412 3.362-3.242 3.362z"/></defs><g><g transform="translate(-578 -2331)"><use fill="#fff" xlink:href="#b6tqa"/></g></g></svg>