<svg version="1.1"  xmlns="http://www.w3.org/2000/svg" xmlns:xlink="http://www.w3.org/1999/xlink" x="0px" y="0px"
	 width="259.029px" height="175px" viewBox="0 0 259.029 175" enable-background="new 0 0 259.029 175" xml:space="preserve">
<g>
	<path fill="#FEF8ED" d="M203.813,174.852c-30.431,0-55.188-24.758-55.188-55.188c0-14.551,5.613-28.28,15.808-38.662
		c10.172-10.356,23.757-16.22,38.255-16.51l0.626-0.016c0.267,0,0.491,0.24,0.499,0.534c0.007,0.301-0.232,0.553-0.533,0.56
		l-0.573,0.015c-29.222,0.585-52.989,24.837-52.989,54.078c0,29.829,24.267,54.096,54.096,54.096
		c29.828,0,54.094-24.267,54.094-54.096c0-31.938-7.622-61.453-22.653-87.726c-11.367-19.869-23.068-30.498-23.56-30.94
		l-0.049-0.043c-0.225-0.199-0.245-0.544-0.046-0.769C211.638,0.14,211.762,0,212.013,0c0.201,0,0.311,0.096,0.356,0.137
		c0.113,0.1,11.84,10.584,23.334,30.393C246.332,48.847,259,79.179,259,119.664C259,150.094,234.243,174.852,203.813,174.852z"/>
	<path fill="#FEF8ED" d="M55.188,174.852C24.757,174.852,0,150.094,0,119.664c0-14.549,5.615-28.281,15.809-38.663
		c10.171-10.355,23.757-16.22,38.255-16.51l0.625-0.015c0.229,0,0.49,0.219,0.498,0.533c0.009,0.301-0.23,0.553-0.533,0.561
		l-0.571,0.014c-29.222,0.587-52.99,24.839-52.99,54.08c0,29.829,24.267,54.096,54.095,54.096c29.828,0,54.095-24.267,54.095-54.096
		c0-31.938-7.623-61.453-22.654-87.726C75.262,12.07,63.561,1.441,63.069,0.998L63.02,0.956c-0.224-0.199-0.245-0.545-0.046-0.77
		C63.014,0.14,63.137,0,63.388,0c0.18,0,0.286,0.073,0.358,0.138c0.108,0.095,11.835,10.578,23.333,30.392
		c10.627,18.317,23.297,48.65,23.297,89.134C110.376,150.094,85.618,174.852,55.188,174.852z"/>
</g>
</svg>
