<svg xmlns="http://www.w3.org/2000/svg" xmlns:xlink="http://www.w3.org/1999/xlink" width="260" height="175" viewBox="0 0 260 175"><defs><path id="t91ia" d="M1005.26 2351.878c-30.433 0-55.193-24.76-55.193-55.194 0-14.553 5.614-28.284 15.81-38.666 10.172-10.359 23.76-16.223 38.26-16.513l.625-.015c.267 0 .49.24.499.534a.547.547 0 0 1-.533.56l-.573.015c-29.226.585-52.995 24.84-52.995 54.085 0 29.832 24.27 54.101 54.1 54.101 29.832 0 54.102-24.269 54.102-54.1 0-31.943-7.623-61.462-22.657-87.737-11.368-19.87-23.07-30.501-23.562-30.945l-.049-.042a.547.547 0 0 1-.046-.77.52.52 0 0 1 .414-.185c.202 0 .31.096.357.137.113.1 11.841 10.585 23.337 30.397 10.629 18.318 23.299 48.654 23.299 89.144 0 30.434-24.76 55.194-55.194 55.194zm-148.64 0c-30.435 0-55.195-24.76-55.195-55.194 0-14.552 5.615-28.285 15.81-38.668 10.172-10.357 23.76-16.221 38.26-16.512l.625-.015c.23 0 .491.22.5.534a.548.548 0 0 1-.534.56l-.572.015c-29.225.587-52.996 24.842-52.996 54.086 0 29.832 24.27 54.101 54.101 54.101 29.832 0 54.101-24.269 54.101-54.1 0-31.943-7.622-61.462-22.656-87.737-11.368-19.87-23.07-30.5-23.563-30.944l-.048-.043a.547.547 0 0 1 .726-.817c.109.096 11.837 10.579 23.335 30.396 10.63 18.319 23.3 48.655 23.3 89.144 0 30.434-24.76 55.194-55.195 55.194z"/></defs><g><g transform="translate(-801 -2177)"><use fill="#b80505" xlink:href="#t91ia"/></g></g></svg>