<svg version="1.1"  xmlns="http://www.w3.org/2000/svg" xmlns:xlink="http://www.w3.org/1999/xlink" x="0px" y="0px"
	 width="18px" height="18px" viewBox="0 0 18 18" enable-background="new 0 0 18 18" xml:space="preserve">
<path fill="#FFFFFF" d="M1.825,1.828c2.434-2.438,6.381-2.438,8.815,0c2.267,2.27,2.42,5.853,0.464,8.303l6.872,6.881l-0.963,0.964
	l-6.868-6.877c-2.448,1.981-6.044,1.833-8.319-0.444C-0.609,8.217-0.609,4.265,1.825,1.828z M2.698,9.78
	c1.953,1.956,5.119,1.956,7.072,0c1.953-1.955,1.953-5.126,0-7.081c-1.953-1.956-5.119-1.956-7.072,0
	C0.745,4.654,0.745,7.825,2.698,9.78z"/>
</svg>
