<svg version="1.1"  xmlns="http://www.w3.org/2000/svg" xmlns:xlink="http://www.w3.org/1999/xlink" x="0px" y="0px"
	 width="13px" height="14px" viewBox="0 0 13 14" enable-background="new 0 0 13 14" xml:space="preserve">
<path fill="#FFFFFF" d="M4.902,6.801c0,0.291-0.053,0.568-0.146,0.827l3.893,1.873c0.449-0.49,1.092-0.799,1.808-0.799
	c1.353,0,2.45,1.097,2.45,2.449c0,1.354-1.098,2.451-2.451,2.451c-1.353,0-2.451-1.098-2.451-2.451c0-0.129,0.014-0.256,0.033-0.38
	L3.894,8.778C3.488,9.074,2.991,9.251,2.451,9.251C1.097,9.251,0,8.155,0,6.8c0-1.353,1.097-2.449,2.451-2.449
	c0.54,0,1.038,0.177,1.443,0.473l4.144-1.992c-0.02-0.124-0.032-0.25-0.032-0.381c0-1.354,1.097-2.45,2.45-2.45
	c1.353,0,2.45,1.097,2.45,2.45s-1.098,2.451-2.45,2.451c-0.716,0-1.358-0.31-1.808-0.8L4.756,5.974
	C4.849,6.232,4.902,6.511,4.902,6.801z"/>
</svg>
