<svg version="1.1" xmlns="http://www.w3.org/2000/svg" xmlns:xlink="http://www.w3.org/1999/xlink" x="0px" y="0px"
	 width="30px" height="24px" viewBox="0 0 30 24" enable-background="new 0 0 30 24" xml:space="preserve">
<path fill="#EBA628" d="M29.342,2.858c-0.042-0.049-0.112-0.066-0.171-0.039c-0.878,0.391-1.801,0.671-2.753,0.837
	c1.011-0.762,1.764-1.817,2.149-3.027c0.018-0.058-0.001-0.123-0.048-0.16c-0.048-0.038-0.113-0.043-0.165-0.012
	c-1.139,0.677-2.371,1.155-3.665,1.418C23.542,0.682,21.94,0,20.283,0c-3.372,0-6.113,2.75-6.113,6.13
	c0,0.409,0.039,0.815,0.117,1.207C9.618,7.048,5.252,4.8,2.284,1.147C2.253,1.111,2.208,1.09,2.159,1.095
	C2.111,1.099,2.068,1.126,2.044,1.167C1.502,2.099,1.217,3.166,1.217,4.25c0,1.879,0.851,3.637,2.302,4.796
	c-0.748-0.09-1.476-0.325-2.133-0.691C1.341,8.33,1.286,8.331,1.242,8.356C1.198,8.381,1.17,8.428,1.169,8.48L1.168,8.558
	c0,2.7,1.773,5.069,4.297,5.857c-0.665,0.106-1.354,0.1-2.032-0.029c-0.05-0.009-0.103,0.008-0.137,0.046
	c-0.033,0.039-0.045,0.092-0.029,0.142c0.757,2.37,2.859,4.03,5.307,4.238c-2.042,1.5-4.455,2.29-7.004,2.29
	c-0.47,0-0.943-0.028-1.407-0.082c-0.065-0.008-0.132,0.031-0.154,0.096s0.001,0.136,0.059,0.172C2.826,23.062,6.016,24,9.293,24
	c10.719,0,17.124-8.734,17.124-17.176c0-0.234-0.005-0.469-0.014-0.702c1.156-0.849,2.148-1.887,2.95-3.088
	C29.388,2.98,29.384,2.908,29.342,2.858z"/>
</svg>
