<svg version="1.1"  xmlns="http://www.w3.org/2000/svg" xmlns:xlink="http://www.w3.org/1999/xlink" x="0px" y="0px"
	 width="18px" height="18px" viewBox="0 0 18 18" enable-background="new 0 0 18 18" xml:space="preserve">
<path fill="#504C4C" d="M16.839,4.838l-0.005-0.021c-0.421-1.699-2.316-3.523-4.057-3.902l-0.02-0.004
	c-2.815-0.537-5.67-0.537-8.484,0l-0.02,0.004c-1.74,0.379-3.636,2.203-4.057,3.902L0.192,4.838c-0.52,2.374-0.52,4.78,0,7.153
	l0.005,0.021c0.403,1.626,2.157,3.367,3.833,3.845v1.897c0,0.686,0.837,1.023,1.313,0.528l1.922-1.998
	c0.417,0.023,0.834,0.036,1.251,0.036c1.417,0,2.835-0.134,4.242-0.402l0.02-0.003c1.74-0.38,3.636-2.204,4.057-3.903l0.005-0.021
	C17.358,9.619,17.358,7.212,16.839,4.838z M15.317,11.648c-0.28,1.108-1.72,2.487-2.862,2.742c-1.497,0.284-3.006,0.406-4.513,0.364
	c-0.03,0-0.06,0.011-0.08,0.033c-0.214,0.219-1.403,1.441-1.403,1.441l-1.493,1.532c-0.108,0.114-0.301,0.037-0.301-0.121v-3.142
	c0-0.052-0.037-0.096-0.088-0.106H4.576c-1.144-0.255-2.582-1.633-2.863-2.742c-0.468-2.145-0.468-4.321,0-6.465
	c0.281-1.108,1.72-2.487,2.863-2.742c2.614-0.496,5.265-0.496,7.879,0c1.144,0.255,2.582,1.634,2.862,2.742
	C15.786,7.328,15.786,9.503,15.317,11.648z M12.321,11.091c0.222,0.196,0.298,0.452,0.173,0.716
	c-0.229,0.486-0.561,0.89-1.041,1.147c-0.136,0.073-0.297,0.097-0.45,0.144c-0.176-0.053-0.343-0.089-0.499-0.154
	c-1.611-0.669-3.096-1.532-4.271-2.854C5.565,9.338,5.042,8.489,4.6,7.591c-0.21-0.426-0.387-0.869-0.566-1.31
	C3.869,5.88,4.111,5.466,4.365,5.164c0.239-0.284,0.547-0.5,0.88-0.661C5.505,4.378,5.762,4.45,5.951,4.67
	C6.362,5.147,6.739,5.647,7.044,6.2c0.188,0.339,0.137,0.755-0.203,0.986C6.758,7.242,6.683,7.308,6.605,7.371
	C6.538,7.427,6.475,7.482,6.428,7.558C6.343,7.696,6.339,7.859,6.394,8.008c0.42,1.153,1.127,2.05,2.287,2.533
	c0.187,0.077,0.373,0.167,0.587,0.143c0.357-0.042,0.474-0.435,0.725-0.641c0.246-0.201,0.56-0.203,0.824-0.036
	c0.264,0.167,0.521,0.346,0.775,0.528C11.842,10.714,12.091,10.888,12.321,11.091z M10.391,8.049
	c-0.161-0.006-0.249-0.101-0.267-0.255c-0.013-0.112-0.022-0.227-0.05-0.336c-0.053-0.216-0.168-0.416-0.35-0.548
	C9.639,6.846,9.542,6.801,9.44,6.771c-0.13-0.038-0.265-0.027-0.394-0.059c-0.14-0.035-0.218-0.148-0.195-0.28
	c0.02-0.119,0.137-0.213,0.267-0.203c0.818,0.059,1.402,0.481,1.485,1.444c0.006,0.068,0.014,0.139-0.002,0.205
	c-0.024,0.105-0.1,0.16-0.176,0.17c0.006,0,0.005,0-0.013,0.001C10.313,8.052,10.353,8.05,10.391,8.049z M12.731,7.49
	c0.063,0.355,0.086,0.719,0.114,1.079c0.012,0.152-0.074,0.295-0.237,0.297c-0.169,0.002-0.245-0.139-0.257-0.291
	c-0.021-0.3-0.036-0.602-0.078-0.899c-0.218-1.571-1.471-2.871-3.034-3.149C9.004,4.486,8.764,4.475,8.525,4.45
	c-0.15-0.017-0.348-0.024-0.382-0.212c-0.027-0.157,0.104-0.282,0.254-0.29c0.041-0.002,0.082,0,0.123,0
	c2.024,0.057,0.123,0.004,0.005,0C10.632,4.009,12.361,5.408,12.731,7.49z M10.904,6.788c-0.231-0.399-0.585-0.735-1-0.938
	C9.654,5.726,9.383,5.65,9.107,5.604c-0.12-0.02-0.241-0.032-0.362-0.049c-0.146-0.02-0.225-0.113-0.218-0.258
	C8.534,5.163,8.633,5.066,8.78,5.074c0.483,0.027,0.951,0.132,1.382,0.36c0.874,0.463,1.374,1.194,1.521,2.171
	c0.006,0.043,0.017,0.088,0.021,0.132c0.008,0.109,0.013,0.22,0.021,0.364c-0.004,0.026-0.005,0.088-0.021,0.147
	c-0.056,0.211-0.377,0.238-0.451,0.024c-0.021-0.063-0.025-0.135-0.025-0.204C11.227,7.622,11.13,7.176,10.904,6.788z"/>
</svg>
