<svg version="1.1"  xmlns="http://www.w3.org/2000/svg" xmlns:xlink="http://www.w3.org/1999/xlink" x="0px" y="0px"
	 width="18px" height="18px" viewBox="0 0 18 18" enable-background="new 0 0 18 18" xml:space="preserve">
<path fill="#504C4C" d="M13.318,10.343c-0.035-0.018-1.347-0.663-1.581-0.747c-0.095-0.035-0.197-0.068-0.306-0.068
	c-0.177,0-0.326,0.088-0.441,0.262c-0.132,0.195-0.528,0.658-0.651,0.797c-0.016,0.018-0.038,0.04-0.051,0.04
	c-0.012,0-0.215-0.083-0.276-0.11C8.605,9.906,7.537,8.436,7.39,8.188C7.37,8.152,7.369,8.135,7.369,8.135
	c0.005-0.019,0.053-0.066,0.077-0.09c0.071-0.07,0.148-0.164,0.223-0.254C7.704,7.748,7.74,7.705,7.774,7.665
	C7.884,7.538,7.932,7.44,7.988,7.326l0.029-0.059C8.154,6.995,8.037,6.765,8,6.691C7.969,6.629,7.415,5.292,7.356,5.151
	c-0.142-0.338-0.329-0.496-0.59-0.496c-0.023,0,0,0-0.101,0.004C6.542,4.664,5.871,4.752,5.574,4.939
	C5.26,5.138,4.727,5.771,4.727,6.882c0,1.001,0.635,1.946,0.908,2.306c0.007,0.009,0.02,0.027,0.038,0.054
	c1.044,1.526,2.347,2.656,3.667,3.183c1.27,0.507,1.872,0.566,2.214,0.566l0,0c0.145,0,0.26-0.012,0.361-0.021l0.064-0.005
	c0.438-0.04,1.404-0.54,1.622-1.149c0.173-0.48,0.219-1.005,0.104-1.195C13.626,10.491,13.491,10.425,13.318,10.343z M9.16,0
	C4.285,0,0.319,3.936,0.319,8.774c0,1.564,0.418,3.097,1.212,4.438l-1.519,4.479c-0.028,0.083-0.007,0.175,0.055,0.238
	C0.112,17.976,0.172,18,0.234,18c0.023,0,0.048-0.003,0.071-0.011l4.67-1.484c1.278,0.683,2.722,1.043,4.185,1.043
	c4.874,0,8.84-3.936,8.84-8.773C18,3.936,14.034,0,9.16,0z M9.16,15.72c-1.375,0-2.708-0.397-3.854-1.149
	c-0.038-0.025-0.083-0.038-0.127-0.038c-0.023,0-0.048,0.003-0.071,0.011l-2.339,0.744l0.755-2.229
	c0.024-0.072,0.012-0.152-0.033-0.213c-0.873-1.192-1.333-2.6-1.333-4.072c0-3.83,3.141-6.947,7.003-6.947
	c3.861,0,7.001,3.117,7.001,6.947S13.021,15.72,9.16,15.72z"/>
</svg>
