<svg version="1.1" xmlns="http://www.w3.org/2000/svg" xmlns:xlink="http://www.w3.org/1999/xlink" x="0px" y="0px"
	 width="18px" height="24px" viewBox="0 0 18 24" enable-background="new 0 0 18 24" xml:space="preserve">
<path fill="#EBA628" d="M3.021,1.093c1.22-0.951,3.564-1.224,4.529-1.038c0.966,0.185,1.47,0.721,1.476,1.373l0.056,8.318
	c0.004,0.652-0.338,1.253-0.76,1.334c-0.425,0.079-1.051-0.31-1.395-0.865L2.528,3.083C2.188,2.526,1.5,2.281,3.021,1.093z
	 M1.562,16.908l4.428-1.555c0.617-0.217,1.17-0.822,1.233-1.346c0.06-0.524-0.389-1.147-0.998-1.387l-4.678-1.84
	c-0.61-0.238-1.312,0.328-1.498,1.254c0,0-0.111,3.229,0,3.896C0.162,16.598,0.944,17.126,1.562,16.908z M9.287,17.686
	c0.013-0.655-0.34-1.221-0.783-1.261c-0.444-0.041-1.149,0.335-1.57,0.834l-3.09,3.675c-0.421,0.499-0.212,1.673,0.402,1.894
	l3.231,1.114c0.614,0.222,1.697-0.435,1.71-1.087L9.287,17.686z M16.966,16.83l-3.874-1.104c-0.628-0.18-1.341-0.162-1.583,0.04
	c-0.242,0.2-0.182,0.834,0.135,1.405l2.445,4.438c0.315,0.572,1.581,0.475,1.929-0.081c0,0,1.473-2.156,1.745-2.964
	C18.034,17.754,17.594,17.009,16.966,16.83z M17.91,10.589c-0.174-0.563-1.385-2.217-2.042-2.782
	c-0.655-0.565-1.405-0.494-1.828,0.002l-2.497,2.95c-0.423,0.497-0.536,1.284-0.254,1.748c0.281,0.463,1.034,0.725,1.671,0.583
	l4.319-0.794C18.061,12.109,18.088,11.149,17.91,10.589z"/>
</svg>
