<svg version="1.1"  xmlns="http://www.w3.org/2000/svg" xmlns:xlink="http://www.w3.org/1999/xlink" x="0px" y="0px"
	 width="34px" height="24px" viewBox="0 0 34 24" enable-background="new 0 0 34 24" xml:space="preserve">
<path fill="#EBA628" d="M32.675,2.06C31.447,0.597,29.181,0,24.854,0H9.146c-4.426,0-6.73,0.635-7.954,2.193C0,3.712,0,5.95,0,9.048
	v5.903C0,20.953,1.415,24,9.146,24h15.709c3.752,0,5.832-0.527,7.177-1.818c1.38-1.324,1.968-3.487,1.968-7.23V9.048
	C34,5.782,33.907,3.53,32.675,2.06z M21.829,12.815l-7.134,3.739c-0.16,0.084-0.334,0.126-0.508,0.126
	c-0.197,0-0.394-0.054-0.568-0.16c-0.328-0.198-0.528-0.556-0.528-0.941V8.125c0-0.383,0.2-0.74,0.527-0.94
	c0.328-0.2,0.735-0.213,1.075-0.035l7.134,3.714c0.363,0.19,0.59,0.565,0.591,0.976C22.417,12.249,22.19,12.625,21.829,12.815z"/>
</svg>
